<?xml version="1.0" encoding="utf-8"?>
<svg width="445" height="445" viewBox="42.364 33.376 402.636 417.766" fill="none" xmlns="http://www.w3.org/2000/svg">
  <path fill-rule="evenodd" clip-rule="evenodd" d="M 138.238 36.21 C 134.433 39.416 132.771 44.939 128.223 69.471 C 125.464 84.356 123.73 98.043 120.567 129.912 C 116.389 172.01 115.193 187.27 114.121 212.152 C 113.592 224.414 113.073 235.784 112.967 237.419 C 112.86 239.054 113.087 241.819 113.471 243.565 C 114.115 246.5 113.743 247.13 108.514 251.965 C 89.303 269.726 74.544 285.995 60.357 305.044 C 54.98 312.264 50.264 318.172 49.877 318.172 C 49.49 318.172 46.178 328.179 44.468 333.272 C 43.4 336.454 42.701 341.572 42.673 346.411 C 42.618 355.989 44.873 361.458 51.408 367.593 C 54.707 370.691 63.723 376.366 64.061 376.028 C 64.399 375.689 67.353 375.884 70.624 376.461 C 76.071 377.423 79.298 377.295 97.42 375.403 C 100.349 375.098 100.425 376.47 98.026 386.54 C 95.943 395.282 95.015 414.879 95.901 431.376 L 96.633 445 L 101.127 445 L 105.621 445 L 105.035 426.917 C 104.285 403.763 105.911 374.657 108.048 372.958 C 109.681 371.66 115.217 370.431 127.589 368.621 C 137.732 367.138 150.692 364.217 158.254 361.711 C 168.734 358.238 170.235 357.806 171.83 357.806 C 172.691 357.806 176.666 356.651 180.662 355.239 C 184.658 353.826 190.025 352.296 192.586 351.837 C 195.147 351.378 198.708 350.337 200.499 349.523 C 202.29 348.709 206.871 346.934 210.68 345.581 C 214.488 344.226 218.383 342.809 219.335 342.429 C 222.301 341.249 221.401 344.085 213.772 359.964 C 203.256 381.851 201.595 385.655 198.214 395.6 C 195.283 404.218 195.24 404.595 196.951 406.489 C 200.208 410.095 203.109 408.355 222.319 391.278 C 227.088 387.037 231.367 383.568 231.827 383.568 C 232.984 383.568 238.545 388.083 245.437 394.62 C 261.456 409.81 265.751 413.293 268.471 413.293 C 272.7 413.293 274.449 410.413 276.082 400.766 C 278.736 385.087 279.356 379.389 280.388 361.107 C 281.743 337.112 282.278 335.88 286.864 346.164 C 288.384 349.57 291.338 356.061 293.43 360.589 C 295.521 365.117 297.232 368.988 297.232 369.19 C 297.232 369.392 298.518 372.375 300.09 375.819 C 301.66 379.264 305.07 387.432 307.666 393.972 C 312.947 407.279 313.564 408.339 316.026 408.339 C 319.399 408.339 319.933 405.848 320.769 386.201 C 321.286 374.059 322.023 366.266 322.721 365.566 C 323.557 364.729 327.129 366.645 336.75 373.094 L 349.658 381.745 L 349.676 386.372 C 349.692 390.458 350.643 397.463 353.536 414.779 C 354.372 419.779 356.523 430.226 358.689 439.798 L 359.865 445 L 364.225 445 C 367.899 445 368.511 444.728 368.111 443.266 C 367.458 440.883 365.844 432.818 364.59 425.679 C 361.904 410.37 357.263 389.437 356.16 387.648 C 354.841 385.511 358.387 385.421 362.435 387.49 C 366.977 389.811 369.787 389.141 370.953 385.461 C 371.776 382.865 368.079 374.355 360.759 361.99 C 357.766 356.934 355.521 352.594 355.769 352.345 C 356.327 351.787 375.886 353.515 387.246 355.127 C 391.871 355.783 402.431 356.292 410.714 356.257 L 425.773 356.196 L 432.437 352.789 C 437.776 350.061 439.699 348.414 442.107 344.506 C 444.887 339.995 445.102 338.991 444.971 331.13 C 444.81 321.489 441.682 310.781 437.086 304.137 C 430.071 293.997 407.048 281.38 385.906 276.091 C 371.553 272.501 369.441 271.534 369.441 268.556 C 369.441 267.558 369.043 265.717 368.555 264.466 C 367.556 261.898 366.23 256.826 364.464 248.813 C 362.732 240.956 357.382 229.994 353.5 226.348 C 351.659 224.618 348.611 222.811 346.727 222.331 L 343.303 221.458 L 343.606 199.715 C 343.773 187.756 344.088 177.683 344.306 177.331 C 345.21 175.865 344.844 90.689 343.88 78.337 C 342.054 54.947 338.237 41.724 332.504 38.935 C 327.145 36.329 321.071 40.072 303.767 56.643 L 294.321 65.688 L 288.11 63.664 C 270.878 58.047 253.287 55.408 229.511 54.876 C 210.06 54.441 201.815 55.502 187.02 60.345 L 179.185 62.909 L 176.633 59.536 C 171.419 52.648 161.047 42.347 155.566 38.614 C 147.878 33.378 142.485 32.63 138.238 36.21 Z M 147.382 42.721 C 150.508 43.912 171.607 64.282 171.607 66.111 C 171.607 66.815 171.051 67.747 170.371 68.183 C 167.582 69.971 166.378 72.394 167.566 73.828 C 168.788 75.302 171.344 74.963 175.537 72.772 C 176.912 72.053 178.557 71.463 179.192 71.459 C 179.827 71.456 182.498 70.389 185.127 69.088 C 195.488 63.96 215.236 61.038 232.441 62.088 C 244.033 62.795 258.872 64.954 276.954 68.565 C 279.674 69.108 284.245 69.812 287.111 70.131 C 289.977 70.45 292.563 71.1 292.857 71.577 C 294.256 73.844 298.398 72.106 304.374 66.746 C 325.219 48.051 328.058 45.93 329.592 47.907 C 331.429 50.278 333.649 59.087 334.778 68.48 C 335.399 73.658 336.123 79.231 336.387 80.866 C 338.528 94.161 338.431 167.069 336.215 210.007 C 335.543 223.056 335.502 223.233 332.952 224.257 C 325.002 227.452 316.827 231.879 307.372 238.11 C 296.069 245.561 293.775 247.321 285.672 254.775 L 280.543 259.495 L 274.297 259.013 C 268.918 258.599 267.749 258.82 265.867 260.608 C 264.665 261.751 263.483 262.685 263.24 262.685 C 262.997 262.685 260.904 261.1 258.587 259.161 C 248.089 250.375 219.75 234.909 207.816 231.452 C 200.989 229.474 193.241 229.89 190.493 232.382 C 189.422 233.352 187.871 237.326 186.859 241.692 C 185.888 245.882 184.512 250.733 183.801 252.473 L 182.509 255.635 L 175.328 255.089 C 162.817 254.138 152.128 249.73 135.869 238.819 L 124.127 230.94 L 124.103 225.757 C 124.091 222.907 123.649 218.791 123.124 216.611 C 121.86 211.374 123.11 192.67 128.092 142.298 C 129.116 131.944 130.444 117.23 131.043 109.6 C 132.456 91.612 133.58 83.752 138.47 57.672 C 141.498 41.52 142.002 40.673 147.382 42.721 Z M 204.21 81.404 C 200.23 85.672 197.997 94.084 198.543 102.75 C 198.912 108.596 199.51 110.535 202.117 114.33 C 203.839 116.836 207.138 120.395 209.448 122.237 C 214.253 126.072 222.033 129.34 223.31 128.061 C 223.794 127.576 223.687 124.545 223.065 121.107 C 222.458 117.755 222.238 114.563 222.576 114.015 C 222.921 113.458 225.317 114.931 228.005 117.353 C 230.653 119.737 235.877 123.538 239.614 125.8 C 250.366 132.307 253.518 130.982 249.229 121.755 C 247.008 116.976 246.032 112.077 247.303 112.077 C 247.587 112.077 252.302 115.867 257.779 120.499 C 263.256 125.132 268.532 128.922 269.504 128.922 C 272.933 128.922 273.766 126.438 273.071 118.275 C 271.993 105.6 271.349 102.146 269.769 100.563 C 267.113 97.902 265.206 101.152 264.757 109.108 C 264.542 112.921 264.083 116.038 263.736 116.034 C 261.759 116.014 253.045 108.633 247.46 102.249 C 243.187 97.365 241.838 99.284 241.838 110.242 L 241.838 119.064 L 239.104 117.648 C 233.999 115.003 226.182 105.704 224.952 100.814 C 223.409 94.675 221.431 93.079 219.038 96.04 C 216.652 98.991 214.768 108.416 215.498 113.751 C 216.22 119.027 214.728 119.38 211.076 114.795 C 203.142 104.834 202.535 93.136 209.431 83.102 C 212.985 77.931 208.737 76.55 204.21 81.404 Z M 302.672 135.306 C 284.689 140.228 274.763 143.795 270.561 146.844 C 266.398 149.865 266.38 149.94 266.287 164.592 C 266.247 170.713 266.695 172.917 268.828 177.096 C 273.362 185.982 281.764 191.285 291.368 191.323 C 300.355 191.359 305.751 188.925 313.106 181.518 C 320.879 173.691 322.986 168.432 323.687 155.112 C 324.094 147.378 323.868 145.522 322.067 141.788 C 320.916 139.401 320.228 136.644 320.539 135.662 C 320.948 134.371 320.384 133.603 318.501 132.886 C 315.301 131.667 316.803 131.437 302.672 135.306 Z M 156.781 133.759 C 152.76 134.472 151.669 137.156 154.732 138.798 C 156.613 139.807 156.654 140.067 155.271 142.182 C 152.775 145.997 151.34 159.204 152.714 165.707 C 155.282 177.865 162.499 184.363 176.978 187.556 C 186.934 189.751 192.056 189.793 201.918 187.763 C 211.088 185.874 213.562 184.709 217.801 180.282 C 223.002 174.85 225.278 168.373 225.804 157.514 C 226.342 146.394 226.331 146.379 215.1 142.781 C 190.487 134.894 169.056 131.579 156.781 133.759 Z M 167.651 139.808 C 168.915 140.616 168.817 140.98 166.99 142.269 C 165.811 143.102 163.882 145.344 162.705 147.251 C 159.933 151.745 158.842 151.656 159.697 147.004 C 161.035 139.728 163.721 137.298 167.651 139.808 Z M 312.81 146.428 L 318.215 151.054 L 317.597 155.724 C 315.929 168.312 311.721 175.359 302.815 180.476 C 298.716 182.831 296.554 183.401 291.697 183.409 C 280.716 183.426 275.328 178.737 272.455 166.668 C 271.626 163.182 273.758 155.674 275.578 155.674 C 276.063 155.674 276.459 155.026 276.459 154.235 C 276.459 153.442 277.46 152.054 278.685 151.149 C 281.305 149.212 301.608 142.108 305.038 141.927 C 306.544 141.848 309.372 143.486 312.81 146.428 Z M 192.523 144.635 C 193.804 145.132 197.524 146.307 200.788 147.245 C 204.052 148.185 207.549 149.685 208.559 150.579 C 210.76 152.529 213.561 157.854 215.691 164.14 C 217.236 168.697 217.225 168.777 214.524 172.68 C 211.365 177.246 208.738 178.787 201.481 180.325 C 188.493 183.078 171.533 180.285 166.418 174.55 C 163.164 170.903 162.746 164.486 165.276 157.023 C 168.759 146.743 174.931 142.338 184.61 143.222 C 187.681 143.503 191.242 144.139 192.523 144.635 Z M 189.995 154.76 C 184.84 160.895 188.134 169.546 195.624 169.546 C 200.257 169.546 203.305 166.111 203.523 160.648 C 203.661 157.162 203.218 156.031 200.947 154.074 C 197.086 150.748 193.158 150.994 189.995 154.76 Z M 286.798 157.305 C 283.687 160.668 283.727 163.671 286.934 167.488 C 291.84 173.329 300.595 170.52 300.595 163.105 C 300.595 155.658 291.759 151.944 286.798 157.305 Z M 238.512 189.77 C 231.261 192.461 224.006 202.271 226.173 206.455 C 227.595 209.204 230.57 208.547 231.964 205.177 C 232.648 203.52 235.008 200.622 237.207 198.736 C 240.325 196.063 242.078 195.308 245.167 195.308 C 248.751 195.308 249.667 195.89 254.762 201.405 C 258.905 205.889 260.846 207.328 262.103 206.845 C 263.385 206.352 263.647 205.537 263.153 203.569 C 262.257 199.989 257.1 192.659 254.089 190.683 C 250.741 188.486 243.169 188.042 238.512 189.77 Z M 346.645 232.914 C 347.708 233.98 349.538 236.989 350.712 239.603 C 351.887 242.216 353.91 246.709 355.209 249.586 C 356.508 252.463 357.571 255.659 357.571 256.688 C 357.571 257.716 358.44 260.588 359.502 263.07 C 361.769 268.368 361.152 269.096 355.153 268.195 C 352.218 267.754 349.628 268.064 346.809 269.194 C 343.04 270.704 342.46 270.708 339.364 269.236 C 335.758 267.522 333.912 267.291 331.439 268.241 C 328.701 269.293 329.711 272.149 333.453 273.936 C 336.717 275.495 336.902 275.796 335.547 277.34 C 331.323 282.157 329.275 288.894 328.406 300.833 C 328.028 306.036 328.37 307.567 331.15 313.104 C 333.23 317.248 335.35 319.983 337.293 321.031 C 338.925 321.911 342.709 324.178 345.701 326.068 C 353.094 330.74 349.961 331.152 338.235 327.05 C 329.617 324.037 306.734 312.628 298.81 307.396 L 294.874 304.796 L 299.578 304.492 C 305.439 304.112 305.194 303.021 298.145 298.126 C 292.443 294.166 291.096 292.41 293.758 292.41 C 295.246 292.41 295.254 292.269 293.84 290.854 C 292.985 289.997 292.283 287.656 292.28 285.652 C 292.274 281.205 290.761 275.529 288.03 269.703 L 285.977 265.326 L 289.874 261.911 C 298.398 254.441 326.344 236.608 334.777 233.259 C 341.636 230.534 344.195 230.46 346.645 232.914 Z M 121.936 238.602 C 123.413 239.525 126.847 242.12 129.568 244.368 C 142.258 254.852 155.659 261.259 174.328 265.769 C 177.315 266.49 179.521 267.575 179.521 268.322 C 179.521 269.957 180.886 270.11 164.909 266.697 C 149.363 263.377 148.008 262.932 138.47 258.032 C 123.154 250.163 118.192 245.506 118.192 239.003 C 118.192 236.488 118.503 236.456 121.936 238.602 Z M 220.251 245.638 C 234.81 252.911 239.51 255.609 252.533 264.171 C 260.983 269.726 260.506 268.77 263.63 286.407 C 264.649 292.162 266.036 299.206 266.713 302.062 C 267.919 307.149 267.887 307.315 265.172 310.153 C 260.21 315.342 247.407 323.821 241.838 325.61 C 238.846 326.57 230.878 329.532 224.131 332.193 C 217.385 334.853 211.703 336.869 211.505 336.67 C 211.309 336.472 212.051 335.158 213.156 333.751 C 216.017 330.108 219.04 323.083 219.066 320.02 C 219.112 314.431 215.839 307.3 210.53 301.424 C 207.62 298.202 205.239 295.388 205.239 295.17 C 205.239 294.952 208.8 292.15 213.152 288.943 C 217.505 285.735 221.066 282.777 221.066 282.37 C 221.066 279.189 211.053 282.416 201.874 288.556 C 197.496 291.484 195.229 292.393 192.956 292.13 L 189.907 291.777 L 189.909 284.911 C 189.911 277.17 190.996 264.511 192.521 254.434 C 193.084 250.714 193.262 246.542 192.917 245.164 C 192.52 243.58 192.888 241.744 193.916 240.171 C 195.39 237.919 196.039 237.726 200.813 238.123 C 204.823 238.456 209.469 240.253 220.251 245.638 Z M 120.665 256.81 C 123.16 259.025 140.289 267.851 144.9 269.298 C 151.783 271.458 157.419 272.588 165.672 273.466 C 178.435 274.822 179.087 275.234 180.396 282.764 C 182.12 292.678 182.011 293.162 177.79 294.361 C 165.186 297.94 150.703 300.565 139.459 301.309 C 132.387 301.778 125.042 302.592 123.138 303.12 C 121.234 303.649 115.002 304.624 109.29 305.287 C 91.555 307.346 86.15 309.663 89.54 313.754 C 90.738 315.2 92.242 315.369 99.869 314.918 C 104.778 314.629 112.579 313.387 117.203 312.158 C 123.645 310.448 127.924 309.97 135.503 310.116 C 145.129 310.301 155.86 308.497 172.102 303.962 C 189.152 299.2 188.085 299.352 193.37 300.925 C 198.685 302.506 199.939 304.301 195.729 304.301 C 192.069 304.301 185.456 308.245 185.456 310.428 C 185.456 311.992 186.345 312.227 192.259 312.227 C 198.642 312.227 205.387 314.025 206.643 316.062 C 206.945 316.552 204.333 317.26 200.837 317.635 C 193.889 318.38 191.289 320.12 193.369 322.631 C 194.206 323.641 196.446 324.117 200.356 324.117 C 203.522 324.117 206.342 324.491 206.623 324.947 C 207.49 326.353 204.503 329.73 197.052 335.769 C 189.714 341.714 178.273 347.015 170.124 348.245 C 167.947 348.574 161.27 350.454 155.286 352.424 C 146.094 355.45 128.03 360.741 116.708 363.726 C 115.076 364.156 112.405 365.065 110.773 365.745 C 108.945 366.507 100.773 367.169 89.484 367.473 C 72.243 367.934 70.865 367.835 66.141 365.8 C 55.015 361.005 49.643 351.364 51.952 340.333 C 53.286 333.964 59.593 319.826 62.501 316.686 C 63.51 315.596 65.413 313.144 66.729 311.236 C 70.689 305.495 80.482 293.477 89.335 283.493 C 97.983 273.739 112.757 257.425 115.057 255.087 C 116.453 253.669 117.483 253.985 120.665 256.81 Z M 275.852 270.659 C 280.449 276.131 282.567 286.793 280.333 293.213 C 279.409 295.867 276.084 298.311 274.947 297.17 C 274.741 296.964 274.067 292.623 273.447 287.524 C 272.828 282.424 271.715 276.233 270.974 273.767 C 268.904 266.875 271.36 265.311 275.852 270.659 Z M 371.42 279.557 C 375.5 281.071 381.954 283.268 385.763 284.439 C 395.027 287.287 408.622 294.115 418.9 301.079 L 427.308 306.778 L 432.521 317.362 C 437.415 327.298 437.676 328.203 436.792 332.145 C 435.518 337.829 432.965 340.974 427.229 343.928 C 422.798 346.21 421.442 346.398 410.515 346.247 C 390.448 345.968 380.455 342.188 360.887 327.471 C 353.896 322.213 347.952 317.632 347.68 317.292 C 347.408 316.953 345.516 315.429 343.476 313.905 C 341.436 312.382 339.766 310.58 339.766 309.899 C 339.766 308.542 345.144 306.282 348.371 306.282 C 349.49 306.282 350.943 305.633 351.601 304.84 C 353.878 302.091 351.708 301.15 343.86 301.484 C 336.381 301.801 336.301 301.778 336.006 299.252 C 335.578 295.573 337.482 294.53 345.237 294.194 C 351.117 293.939 352.164 293.62 352.475 291.98 C 352.973 289.371 350.241 287.602 344.538 286.844 C 339.07 286.118 338.634 284.937 342.486 281.285 C 348.943 275.166 358.107 274.619 371.42 279.557 Z M 292.036 313.575 C 299.355 320.138 318.991 331.349 331.543 336.13 C 336.422 337.989 336.858 338.46 340.415 345.716 C 342.472 349.913 346.238 356.468 348.786 360.283 C 354.925 369.481 357.805 375.067 356.61 375.467 C 356.075 375.645 351.286 373.09 345.97 369.786 C 340.654 366.484 334.386 362.602 332.042 361.161 C 329.698 359.719 325.848 358.322 323.486 358.056 C 317.32 357.359 316.212 359.479 315.125 374.068 C 314.251 385.809 313.628 388.35 312.462 384.948 C 312.108 383.917 310.539 380.284 308.976 376.877 C 307.413 373.469 306.134 370.417 306.134 370.095 C 306.134 368.703 292.665 341.802 288.646 335.169 L 284.236 327.89 L 285.483 319.068 C 286.168 314.216 287.088 310.246 287.526 310.246 C 287.965 310.246 289.994 311.744 292.036 313.575 Z M 273.02 349.707 C 272.155 361.873 271.02 375.027 270.499 378.937 C 268.677 392.612 267.528 399.657 266.975 400.553 C 266.67 401.049 262.112 397.359 256.849 392.353 C 251.586 387.346 244.67 381.315 241.482 378.95 C 233.15 372.77 231.034 373.001 221.362 381.15 C 217.118 384.725 212.854 388.093 211.884 388.634 C 208.949 390.27 209.994 387.142 219.034 367.219 C 220.518 363.949 222.557 359.045 223.565 356.32 C 226.224 349.141 227.808 347.04 232.287 344.752 C 240.303 340.655 264.226 323.647 269.041 318.622 L 273.986 313.46 L 274.29 320.523 C 274.457 324.407 273.886 337.54 273.02 349.707 Z M 365.915 341.928 C 370.331 343.609 368.675 344.538 362.016 344.113 C 357.592 343.831 355.085 344.115 353.995 345.019 C 352.651 346.138 352.196 346.043 350.985 344.392 C 349.612 342.522 349.814 342.426 356.285 341.88 C 359.985 341.567 363.094 341.233 363.195 341.137 C 363.296 341.04 364.519 341.397 365.915 341.928 Z" fill="black"/>
  <path style="fill: rgb(216, 216, 216); stroke: rgb(0, 0, 0); stroke-width: 6px; stroke-linecap: round; stroke-miterlimit: 1;" d="M 99.546 443.965 L 365.08 444.34"/>
</svg>